<svg width="61" height="68" viewBox="0 0 61 68" fill="none" xmlns="http://www.w3.org/2000/svg">
<path d="M60.2915 45.2552L53.9578 38.9241V28.1379C53.9503 22.3152 51.7907 16.7005 47.8939 12.3725C43.9971 8.04451 38.6379 5.30835 32.8458 4.68966V0H28.1542V4.68966C22.3781 5.34786 17.0425 8.09573 13.1534 12.4151C9.26438 16.7345 7.09066 22.327 7.04216 28.1379V38.9241L0.708545 45.2552C0.47959 45.4617 0.298124 45.7154 0.176638 45.9987C0.0551525 46.2821 -0.00346854 46.5884 0.00480961 46.8966V53.931C-0.0159246 54.2443 0.0305403 54.5584 0.141093 54.8523C0.251647 55.1462 0.423736 55.4131 0.645841 55.6351C0.867945 55.8571 1.13494 56.0291 1.42894 56.1396C1.72295 56.2501 2.03718 56.2966 2.35059 56.2759H18.7711C18.7711 59.3853 20.0068 62.3674 22.2064 64.5661C24.406 66.7648 27.3893 68 30.5 68C33.6107 68 36.594 66.7648 38.7936 64.5661C40.9932 62.3674 42.2289 59.3853 42.2289 56.2759H58.6494C58.9628 56.2966 59.2771 56.2501 59.5711 56.1396C59.8651 56.0291 60.1321 55.8571 60.3542 55.6351C60.5763 55.4131 60.7484 55.1462 60.8589 54.8523C60.9695 54.5584 61.0159 54.2443 60.9952 53.931V46.8966C61.0035 46.5884 60.9449 46.2821 60.8234 45.9987C60.7019 45.7154 60.5204 45.4617 60.2915 45.2552ZM30.5 63.3103C28.6336 63.3103 26.8436 62.5692 25.5238 61.25C24.2041 59.9308 23.4626 58.1415 23.4626 56.2759H37.5374C37.5374 58.1415 36.7959 59.9308 35.4762 61.25C34.1564 62.5692 32.3664 63.3103 30.5 63.3103Z" fill="white"/>
</svg>
