<svg width="63" height="68" viewBox="0 0 63 68" fill="none" xmlns="http://www.w3.org/2000/svg">
<path d="M31.5 0C14.105 0 0 13.702 0 30.6C0 44.778 9.94 56.678 23.415 60.146L31.5 68L39.585 60.146C53.06 56.678 63 44.778 63 30.6C63 13.702 48.895 0 31.5 0ZM31.5 6.8C37.31 6.8 42 11.356 42 17C42 22.644 37.31 27.2 31.5 27.2C25.69 27.2 21 22.644 21 17C21 11.356 25.69 6.8 31.5 6.8ZM31.5 55.42C22.75 55.42 15.015 51.068 10.5 44.472C10.605 37.706 24.5 34 31.5 34C38.465 34 52.395 37.706 52.5 44.472C47.985 51.068 40.25 55.42 31.5 55.42Z" fill="white"/>
</svg>
